<svg height="180" width="320" xmlns="http://www.w3.org/2000/svg">
  <rect x="10" y="10" width="35" height="30" rx="5" ry="5" style="fill:blue;stroke:black;stroke-width:2"/>
  <rect x="50" y="10" width="35" height="30" rx="5" ry="5" style="fill:blue;stroke:black;stroke-width:2"/>
  <rect x="90" y="10" width="35" height="30" rx="5" ry="5" style="fill:blue;stroke:black;stroke-width:2"/>
  <rect x="130" y="10" width="35" height="30" rx="5" ry="5" style="fill:blue;stroke:black;stroke-width:2"/>
  <rect x="170" y="10" width="35" height="30" rx="5" ry="5" style="fill:blue;stroke:black;stroke-width:2"/>
  <rect x="210" y="10" width="35" height="30" rx="5" ry="5" style="fill:blue;stroke:black;stroke-width:2"/>
  <rect x="250" y="10" width="55" height="30" rx="5" ry="5" style="fill:blue;stroke:black;stroke-width:2"/>
  <rect x="10" y="50" width="55" height="30" rx="5" ry="5" style="fill:blue;stroke:black;stroke-width:2"/>
  <rect x="70" y="50" width="35" height="30" rx="5" ry="5" style="fill:blue;stroke:black;stroke-width:2"/>
  <rect x="110" y="50" width="35" height="30" rx="5" ry="5" style="fill:blue;stroke:black;stroke-width:2"/>
  <rect x="150" y="50" width="35" height="30" rx="5" ry="5" style="fill:blue;stroke:black;stroke-width:2"/>
  <rect x="190" y="50" width="35" height="30" rx="5" ry="5" style="fill:blue;stroke:black;stroke-width:2"/>
  <rect x="230" y="50" width="35" height="30" rx="5" ry="5" style="fill:blue;stroke:black;stroke-width:2"/>
  <rect x="270" y="50" width="35" height="30" rx="5" ry="5" style="fill:blue;stroke:black;stroke-width:2"/>
  <rect x="10" y="90" width="35" height="30" rx="5" ry="5" style="fill:blue;stroke:black;stroke-width:2"/>
  <rect x="50" y="90" width="45" height="30" rx="5" ry="5" style="fill:blue;stroke:black;stroke-width:2"/>
  <rect x="100" y="90" width="35" height="30" rx="5" ry="5" style="fill:blue;stroke:black;stroke-width:2"/>
  <rect x="140" y="90" width="35" height="30" rx="5" ry="5" style="fill:blue;stroke:black;stroke-width:2"/>
  <rect x="180" y="90" width="35" height="30" rx="5" ry="5" style="fill:blue;stroke:black;stroke-width:2"/>
  <rect x="220" y="90" width="35" height="30" rx="5" ry="5" style="fill:blue;stroke:black;stroke-width:2"/>
  <rect x="260" y="90" width="45" height="30" rx="5" ry="5" style="fill:blue;stroke:black;stroke-width:2"/>
  <rect x="10" y="130" width="55" height="30" rx="5" ry="5" style="fill:blue;stroke:black;stroke-width:2"/>
  <rect x="70" y="130" width="35" height="30" rx="5" ry="5" style="fill:blue;stroke:black;stroke-width:2"/>
  <rect x="110" y="130" width="115" height="30" rx="5" ry="5" style="fill:blue;stroke:black;stroke-width:2"/>
  <rect x="230" y="130" width="35" height="30" rx="5" ry="5" style="fill:blue;stroke:black;stroke-width:2"/>
  <rect x="270" y="130" width="35" height="30" rx="5" ry="5" style="fill:blue;stroke:black;stroke-width:2"/>
</svg>