<svg width="320" height="320" xmlns="http://www.w3.org/2000/svg">
  <path d="M50,130 A120,80,0,0,1,110,46 A30,20,0,0,1,150,60 L170,132 L76,160 A20,30,0,0,1,50,130" style="fill:none;stroke:lightgrey;stroke-width:12"/>
  <line x1="30" y1="140" x2="180" y2="100" style="stroke:grey;stroke-width:20"/>
  <line x1="110" y1="30" x2="140" y2="160" style="stroke:grey;stroke-width:16"/>
  <polygon points="200,30 220,90 260,90 280,30" style="fill:lightgreen;stroke:black;stroke-width:4"/>
  <polygon points="220,210 220,90 260,90 260,210" style="fill:lightgreen;stroke:black;stroke-width:4"/>
  <path d="M30,200 L60,200 L90,250 L240,250 L280,260 A10,10,0,0,1,280,280 L120,280 L50,270 L30,200" style="fill:lightblue;stroke:grey;stroke-width:2"/>
  <polygon points="200,270 200,290 160,290 150,285 150,275 160,270" style="fill:blue;stroke:grey;stroke-width:2"/>
</svg>
