<svg id="Titre" xmlns="http://www.w3.org/2000/svg" viewBox="0 0 640 640">
    <title>ICON_TOOLBAR_AVITAB_PANEL</title>
    <g id="HIGHLIGHT">
        <g>
            <path d="M300,210  A20,40,0,0,1,340,210    L340,253    A80,80,0,0,1,399,317
                    L480,340   L490,380    L390,367    A80,80,0,0,1,337,409    L335,440
                    L385,450  L385,470   L320,475   L255,470   L255,450    L305,440
                    L303,409    A80,80,0,0,1,250,367   L150,380    L160,340     L241,317
                    A80,80,0,0,1,300,253  L320,260
                    A70,70,0,0,0,250,330  A70,70,0,0,0,320,400  A70,70,0,0,0,390,330  A70,70,0,0,0,320,260  L300,253  Z"/>
            <path d="M310,270 L330,270 L370,370 L355,370 L342,340 L320,340 L320,325 L336,325 L320,285 L304,325 L320,325 L320,340 L298,340 L285,370  L270,370 Z"/>
        </g>
    </g>
</svg>
